<?xml version="1.0" encoding="UTF-8" standalone="no"?><!-- Generator: Gravit.io --><svg xmlns="http://www.w3.org/2000/svg" xmlns:xlink="http://www.w3.org/1999/xlink" style="isolation:isolate" viewBox="0 0 512 512" width="512pt" height="512pt"><defs><clipPath id="_clipPath_MfTU5A28Bbz33AFArM1qNBzJ6qCgrTGL"><rect width="512" height="512"/></clipPath></defs><g clip-path="url(#_clipPath_MfTU5A28Bbz33AFArM1qNBzJ6qCgrTGL)"><path d="M 57.748 186.344 L 186.344 57.748 C 224.788 19.303 287.212 19.303 325.656 57.748 L 454.252 186.344 C 492.697 224.788 492.697 287.212 454.252 325.656 L 325.656 454.252 C 287.212 492.697 224.788 492.697 186.344 454.252 L 57.748 325.656 C 19.303 287.212 19.303 224.788 57.748 186.344 Z" style="stroke:none;fill:#EBEBEB;stroke-miterlimit:10;"/><clipPath id="_clipPath_uXqqiOAgXBExbRaw6wXdNQ29Op4mJBWe"><path d="M 57.748 186.344 L 186.344 57.748 C 224.788 19.303 287.212 19.303 325.656 57.748 L 454.252 186.344 C 492.697 224.788 492.697 287.212 454.252 325.656 L 325.656 454.252 C 287.212 492.697 224.788 492.697 186.344 454.252 L 57.748 325.656 C 19.303 287.212 19.303 224.788 57.748 186.344 Z" style="stroke:none;fill:#EBEBEB;stroke-miterlimit:10;"/></clipPath><g clip-path="url(#_clipPath_uXqqiOAgXBExbRaw6wXdNQ29Op4mJBWe)"><g><rect x="22.198" y="154.576" width="104.382" height="566.071" transform="matrix(0.707,-0.707,0.707,0.707,-287.65,180.774)" fill="rgb(114,9,183)"/><rect x="94.842" y="81.931" width="104.382" height="566.071" transform="matrix(0.707,-0.707,0.707,0.707,-215.005,210.864)" fill="rgb(86,11,173)"/><rect x="167.487" y="9.287" width="104.382" height="566.071" transform="matrix(0.707,-0.707,0.707,0.707,-142.361,240.955)" fill="rgb(72,12,168)"/><rect x="240.131" y="-63.358" width="104.382" height="566.071" transform="matrix(0.707,-0.707,0.707,0.707,-69.716,271.045)" fill="rgb(58,12,163)"/><rect x="312.776" y="-136.002" width="104.382" height="566.071" transform="matrix(0.707,-0.707,0.707,0.707,2.928,301.136)" fill="rgb(63,55,201)"/><rect x="385.42" y="-208.647" width="104.382" height="566.071" transform="matrix(0.707,-0.707,0.707,0.707,75.573,331.226)" fill="rgb(67,97,238)"/></g><path d=" M 250.492 202.31 L 275.346 202.31 L 275.346 278.401 L 275.346 278.401 Q 275.346 291.432 269.515 301.245 L 269.515 301.245 L 269.515 301.245 Q 263.683 311.058 252.664 316.286 L 252.664 316.286 L 252.664 316.286 Q 241.644 321.514 226.603 321.514 L 226.603 321.514 L 226.603 321.514 Q 203.92 321.514 191.372 309.891 L 191.372 309.891 L 191.372 309.891 Q 178.824 298.268 178.824 278.079 L 178.824 278.079 L 178.824 202.31 L 203.679 202.31 L 203.679 274.299 L 203.679 274.299 Q 203.679 287.892 209.148 294.247 L 209.148 294.247 L 209.148 294.247 Q 214.618 300.601 227.246 300.601 L 227.246 300.601 L 227.246 300.601 Q 239.472 300.601 244.982 294.207 L 244.982 294.207 L 244.982 294.207 Q 250.492 287.812 250.492 274.138 L 250.492 274.138 L 250.492 202.31 Z  M 329.077 319.905 L 304.142 319.905 L 304.142 202.31 L 329.077 202.31 L 329.077 319.905 Z " fill="rgb(255,255,255)"/></g></g></svg>